<mxfile host="app.diagrams.net" modified="2023-11-14T07:30:17.463Z" agent="Mozilla/5.0 (Macintosh; Intel Mac OS X 10_15_7) AppleWebKit/537.36 (KHTML, like Gecko) Chrome/119.0.0.0 Safari/537.36" etag="RJxU5wmv6SnR61vR22gI" version="22.1.0" type="github">
  <diagram name="第 1 页" id="Qdbz2ryY4kLCoOsuXEza">
    <mxGraphModel dx="531" dy="341" grid="1" gridSize="10" guides="1" tooltips="1" connect="1" arrows="1" fold="1" page="1" pageScale="1" pageWidth="827" pageHeight="1169" math="0" shadow="0">
      <root>
        <mxCell id="0" />
        <mxCell id="1" parent="0" />
        <mxCell id="nUwXLSTTXLct_IVC9Jze-4" value="1 ~ 7" style="rounded=0;whiteSpace=wrap;html=1;" vertex="1" parent="1">
          <mxGeometry x="240" y="200" width="270" height="40" as="geometry" />
        </mxCell>
        <mxCell id="nUwXLSTTXLct_IVC9Jze-5" value="1 ~ 4" style="rounded=0;whiteSpace=wrap;html=1;" vertex="1" parent="1">
          <mxGeometry x="240" y="260" width="150" height="40" as="geometry" />
        </mxCell>
        <mxCell id="nUwXLSTTXLct_IVC9Jze-6" value="5 ~ 7" style="rounded=0;whiteSpace=wrap;html=1;" vertex="1" parent="1">
          <mxGeometry x="400" y="260" width="110" height="40" as="geometry" />
        </mxCell>
        <mxCell id="nUwXLSTTXLct_IVC9Jze-7" value="1 ~ 2" style="rounded=0;whiteSpace=wrap;html=1;" vertex="1" parent="1">
          <mxGeometry x="240" y="320" width="70" height="40" as="geometry" />
        </mxCell>
        <mxCell id="nUwXLSTTXLct_IVC9Jze-9" value="3 ~ 4" style="rounded=0;whiteSpace=wrap;html=1;" vertex="1" parent="1">
          <mxGeometry x="320" y="320" width="70" height="40" as="geometry" />
        </mxCell>
        <mxCell id="nUwXLSTTXLct_IVC9Jze-10" value="5 ~ 6" style="rounded=0;whiteSpace=wrap;html=1;" vertex="1" parent="1">
          <mxGeometry x="400" y="320" width="70" height="40" as="geometry" />
        </mxCell>
        <mxCell id="nUwXLSTTXLct_IVC9Jze-11" value="7" style="rounded=0;whiteSpace=wrap;html=1;" vertex="1" parent="1">
          <mxGeometry x="480" y="320" width="30" height="40" as="geometry" />
        </mxCell>
        <mxCell id="nUwXLSTTXLct_IVC9Jze-12" value="1" style="rounded=0;whiteSpace=wrap;html=1;" vertex="1" parent="1">
          <mxGeometry x="240" y="380" width="30" height="40" as="geometry" />
        </mxCell>
        <mxCell id="nUwXLSTTXLct_IVC9Jze-13" value="2" style="rounded=0;whiteSpace=wrap;html=1;" vertex="1" parent="1">
          <mxGeometry x="280" y="380" width="30" height="40" as="geometry" />
        </mxCell>
        <mxCell id="nUwXLSTTXLct_IVC9Jze-14" value="3" style="rounded=0;whiteSpace=wrap;html=1;" vertex="1" parent="1">
          <mxGeometry x="320" y="380" width="30" height="40" as="geometry" />
        </mxCell>
        <mxCell id="nUwXLSTTXLct_IVC9Jze-15" value="4" style="rounded=0;whiteSpace=wrap;html=1;" vertex="1" parent="1">
          <mxGeometry x="360" y="380" width="30" height="40" as="geometry" />
        </mxCell>
        <mxCell id="nUwXLSTTXLct_IVC9Jze-16" value="5" style="rounded=0;whiteSpace=wrap;html=1;" vertex="1" parent="1">
          <mxGeometry x="400" y="380" width="30" height="40" as="geometry" />
        </mxCell>
        <mxCell id="nUwXLSTTXLct_IVC9Jze-17" value="6" style="rounded=0;whiteSpace=wrap;html=1;" vertex="1" parent="1">
          <mxGeometry x="440" y="380" width="30" height="40" as="geometry" />
        </mxCell>
      </root>
    </mxGraphModel>
  </diagram>
</mxfile>
